<svg width="20" height="20" viewBox="0 0 20 20" fill="none" xmlns="http://www.w3.org/2000/svg">
<rect width="20" height="20" rx="3.33333" fill="#7C3AED"/>
<path d="M9.9616 5C10.4915 5 10.8763 5.09726 11.1156 5.29245C11.372 5.48764 11.5 5.9935 11.5 6.80971C11.5 7.60817 11.3891 8.00755 11.1669 8.00767L11.0388 7.92795C10.9362 7.69725 10.6711 7.58178 10.2437 7.58178L9.62813 7.63507C9.21793 7.63504 8.92719 7.53737 8.75626 7.34219C8.58542 7.14699 8.50003 6.80988 8.5 6.33096C8.5 5.85182 8.61124 5.51452 8.83347 5.31931C9.05571 5.10637 9.43168 5 9.9616 5Z" fill="#D6FFB7"/>
<path d="M9.93614 9.78229C10.5001 9.78231 10.9017 9.89784 11.1411 10.1285C11.3804 10.3414 11.5 10.7143 11.5 11.2467C11.5 12.2226 11.2779 13.0654 10.8335 13.7752C10.4061 14.485 9.92728 14.8935 9.39733 15C9.27777 15 9.21786 14.9731 9.21786 14.9198L9.2692 14.7604C9.66237 14.3523 9.90199 13.8287 9.98748 13.1899L10.0129 12.8701C10.0129 12.5686 9.89324 12.4 9.65401 12.3645H9.52588C9.13282 12.3645 8.85923 12.2758 8.70534 12.0985C8.56859 11.921 8.50001 11.6015 8.5 11.1401C8.5 10.6787 8.59409 10.3414 8.78214 10.1285C8.98729 9.8978 9.37205 9.78229 9.93614 9.78229Z" fill="#D6FFB7"/>
</svg>
