<svg width="48" height="48" viewBox="0 0 48 48" fill="none" xmlns="http://www.w3.org/2000/svg">
<rect width="48" height="48" rx="8" fill="#9810FA"/>
<path d="M33.4062 24.7548L34.0094 22.5008C34.714 19.87 35.0675 18.5551 34.8027 17.4165C34.5928 16.5175 34.121 15.7011 33.447 15.0703C32.5942 14.2711 31.2782 13.9188 28.6474 13.2141C26.0165 12.5083 24.7005 12.156 23.563 12.4208C22.6641 12.6307 21.8476 13.1025 21.2169 13.7765C20.532 14.5068 20.175 15.5766 19.6442 17.5203L19.3595 18.5761L18.7564 20.8301C18.0505 23.461 17.6982 24.7758 17.963 25.9145C18.1729 26.8134 18.6447 27.6299 19.3187 28.2606C20.1715 29.0598 21.4875 29.4121 24.1184 30.118C26.489 30.7526 27.7922 31.1015 28.8597 30.9696C28.9764 30.9549 29.0907 30.9346 29.2027 30.909C30.1013 30.6997 30.9178 30.2288 31.5489 29.5556C32.348 28.7016 32.7004 27.3856 33.4062 24.7548Z" fill="#FAFAFA"/>
<path d="M12.9218 27.1676L13.525 29.4216C14.2297 32.0524 14.5832 33.3684 15.3823 34.2212C16.0131 34.8942 16.8291 35.3651 17.7273 35.5746C18.866 35.8406 20.182 35.4882 22.814 34.7836C25.4437 34.0789 26.7597 33.7266 27.6125 32.9274C27.6833 32.8605 27.7517 32.7921 27.8178 32.7221C27.4205 32.6862 27.0255 32.6278 26.6348 32.5471C25.8228 32.3861 24.858 32.1271 23.717 31.8214L23.5922 31.7876L23.563 31.7806C22.3217 31.4481 21.2845 31.1692 20.4562 30.8706C19.5847 30.5556 18.7937 30.1671 18.1205 29.5371C17.1945 28.6695 16.5466 27.5469 16.2585 26.3112C16.0485 25.4141 16.1092 24.5356 16.2725 23.6232C16.4288 22.7494 16.7088 21.7029 17.0448 20.4476L17.669 18.1212L17.69 18.0396C15.45 18.6427 14.2705 18.9997 13.4842 19.7359C12.8104 20.3671 12.339 21.184 12.1297 22.0832C11.8637 23.2207 12.216 24.5367 12.9218 27.1676Z" fill="#FAFAFA"/>
</svg>
